:version 1.10
:name ASF
:units
  mass 1
  length 1
  angle deg
:documentation
  ASF file generated by Kaydara
:root
  axis xyz
  order  tx ty tz rx ry rz
  position 0 0 0
  orientation 0 0 0
:bonedata
  begin
    id 1
    name RightUpLegDummy
    direction -0.718183 -0.695806 0.00816078
    length 4.904
    axis 0 0 0 xyz
  end
  begin
    id 2
    name RightUpLeg
    direction 3.53989e-006 -0.995788 0.0916897
    length 17.4976
    axis -3.49089 -0.000906621 0.000287158 xyz
    dof rx ry rz
  end
  begin
    id 3
    name RightLeg
    direction 0.00371093 -0.995096 -0.0988418
    length 16.5821
    axis 3.68512 0.0193738 -0.131023 xyz
    dof rx ry rz
  end
  begin
    id 4
    name RightFoot
    direction 0.000791514 -0.46099 0.887405
    length 3.77069
    axis 4.84075e-005 -0.120479 -0.188788 xyz
    dof rx ry rz
  end
  begin
    id 5
    name RightToes
    direction 0.00124746 -0.014064 0.9999
    length 3.85082
    axis 0.00048216 0.542163 -0.142577 xyz
    dof rx ry rz
  end
  begin
    id 6
    name SpineDummy
    direction 8.36599e-015 1 5.97571e-016
    length 4.6813
    axis 0 0 0 xyz
  end
  begin
    id 7
    name Spine
    direction -4.63632e-008 0.999988 0.00495137
    length 10.1015
    axis -0.00138897 0.000121419 3.25764e-006 xyz
    dof rx ry rz
  end
  begin
    id 8
    name Spine1
    direction 0 0 0
    length 0
    axis -0.00138896 0.000121452 2.39764e-006 xyz
    dof rx ry rz
  end
  begin
    id 9
    name HEadDummy
    direction -3.91456e-008 0.999999 0.00127422
    length 3.43865
    axis -0.00138896 0.000121452 2.39764e-006 xyz
  end
  begin
    id 10
    name HEad
    direction -0.0222688 0.980941 0.193023
    length 5.12695
    axis -0.00138895 0.000121452 2.39764e-006 xyz
    dof rx ry rz
  end
  begin
    id 11
    name LeftShoulder1Dummy
    direction 0.998891 -0.0402508 -0.0244456
    length 3.5433
    axis -0.00138896 0.000121452 2.39764e-006 xyz
  end
  begin
    id 12
    name LeftShoulder1
    direction 0.99951 -0.000327743 0.0313091
    length 4.05031
    axis -0.00138896 0.000121452 2.39764e-006 xyz
    dof rx ry rz
  end
  begin
    id 13
    name LeftArm
    direction 0.998561 -0.00100054 -0.0536182
    length 10.3537
    axis -23.1894 0.134784 0.96751 xyz
    dof rx ry rz
  end
  begin
    id 14
    name LeftForeArm
    direction 0.998903 0.00866434 0.046012
    length 8.70632
    axis -9.91835 -0.06569 -0.177792 xyz
    dof rx ry rz
  end
  begin
    id 15
    name LeftHand
    direction 0.992938 -0.0411636 0.11126
    length 5.32135
    axis -0.00960227 -0.00340091 0.185174 xyz
    dof rx ry rz
  end
  begin
    id 16
    name RightShoulderDummy
    direction -0.998891 -0.0402509 -0.0244414
    length 3.5433
    axis -0.00138896 0.000121452 2.39764e-006 xyz
  end
  begin
    id 17
    name RightShoulder
    direction -0.99951 -0.000327827 0.0313133
    length 4.05031
    axis 0.215806 0.000203644 -0.00680151 xyz
    dof rx ry rz
  end
  begin
    id 18
    name RightArm
    direction -0.998573 -0.000999583 -0.053403
    length 10.3947
    axis -23.2009 -0.134239 -0.9641 xyz
    dof rx ry rz
  end
  begin
    id 19
    name RightForeArm
    direction -0.998898 0.00868026 0.0461306
    length 8.68355
    axis -9.92322 0.0658061 0.178869 xyz
    dof rx ry rz
  end
  begin
    id 20
    name RightHand
    direction -0.992843 -0.0414603 0.112003
    length 5.28593
    axis -0.00960634 0.00330671 -0.185226 xyz
    dof rx ry rz
  end
  begin
    id 21
    name LeftUpLegDummy
    direction 0.718183 -0.695806 0.00816078
    length 4.904
    axis 0 0 0 xyz
  end
  begin
    id 22
    name LeftUpLeg
    direction -6.8115e-006 -0.995793 0.0916336
    length 17.4976
    axis -3.48766 0.00143441 -0.000523914 xyz
    dof rx ry rz
  end
  begin
    id 23
    name LeftLeg
    direction -0.00601357 -0.995091 -0.0987824
    length 16.5821
    axis 3.68177 -0.00654038 -0.00028478 xyz
    dof rx ry rz
  end
  begin
    id 24
    name LeftFoot
    direction -0.00417578 -0.460984 0.887399
    length 3.77069
    axis 1.87232e-006 4.66002e-005 -8.1837e-006 xyz
    dof rx ry rz
  end
  begin
    id 25
    name LeftToes
    direction 0.00818058 -0.00485161 0.999955
    length 3.85048
    axis 1.06246e-005 4.65855e-005 -8.18502e-006 xyz
    dof rx ry rz
  end
:hierarchy
  begin
    root RightUpLegDummy SpineDummy LeftUpLegDummy
    RightUpLegDummy RightUpLeg
    RightUpLeg RightLeg
    RightLeg RightFoot
    RightFoot RightToes
    SpineDummy Spine
    Spine Spine1
    Spine1 HEadDummy LeftShoulder1Dummy RightShoulderDummy
    HEadDummy HEad
    LeftShoulder1Dummy LeftShoulder1
    LeftShoulder1 LeftArm
    LeftArm LeftForeArm
    LeftForeArm LeftHand
    RightShoulderDummy RightShoulder
    RightShoulder RightArm
    RightArm RightForeArm
    RightForeArm RightHand
    LeftUpLegDummy LeftUpLeg
    LeftUpLeg LeftLeg
    LeftLeg LeftFoot
    LeftFoot LeftToes
  end

:SAMPLES-PER-SECOND 24
:FULLY-SPECIFIED
:DEGREES
1
root  -0.16979 38.6011 12.6389 -169.02 36.3743 -174.465
RightUpLeg  -9.79048 -6.35287 0.917426
RightLeg  27.0763 -10.3953 -5.9421
RightFoot  -17.4907 0.253039 6.94648
RightToes  -2.09809e-008 3.77894e-005 6.81332e-007
Spine  1.39512 0.371505 4.20164
Spine1  6.84806 0.108589 0.523578
HEad  -30.121 17.3101 -12.4176
LeftShoulder1  7.77632 -13.6707 -39.114
LeftArm  -4.07148 21.8572 -31.6361
LeftForeArm  160.238 -70.7319 -150.995
LeftHand  -0.240691 0.568973 5.78898
RightShoulder  3.7186 6.33464 31.908
RightArm  11.4657 -13.9454 40.2607
RightForeArm  142.871 78.0467 128.45
RightHand  -0.778429 6.94256 -7.64685
LeftUpLeg  -26.3273 13.5302 10.5069
LeftLeg  33.5768 26.198 17.8063
LeftFoot  -1.72546 0.820196 -9.61292
LeftToes  1.24773e-006 1.46318e-008 1.32523e-009
2
root  0.0723083 38.317 13.0119 -169.249 39.5954 -174.221
RightUpLeg  -10.8871 -5.23233 1.24708
RightLeg  29.2396 -8.8793 -5.57221
RightFoot  -19.3671 0.221475 5.03397
RightToes  -2.09809e-008 3.77894e-005 6.81332e-007
Spine  1.80516 1.24831 3.90423
Spine1  7.86011 1.04727 0.61683
HEad  -30.6492 18.7228 -13.1008
LeftShoulder1  8.26831 -14.0365 -40.8806
LeftArm  -6.4758 19.4125 -31.5066
LeftForeArm  162.386 -71.4325 -150.201
LeftHand  -0.274536 0.645596 6.70279
RightShoulder  3.58442 6.19006 31.0825
RightArm  13.7459 -9.27125 39.2567
RightForeArm  133.898 78.9262 121.238
RightHand  -0.875998 7.08577 -8.47809
LeftUpLeg  -25.8544 13.2991 11.9614
LeftLeg  36.0836 26.8447 19.7666
LeftFoot  -1.62545 0.913534 -10.618
LeftToes  1.24773e-006 1.46318e-008 1.32523e-009
3
root  0.385056 38.365 13.1401 -170.285 42.4245 -175.176
RightUpLeg  -10.9378 -2.34794 0.675421
RightLeg  30.1438 -9.14414 -5.92831
RightFoot  -19.3503 0.19648 4.6782
RightToes  -2.09809e-008 3.77894e-005 6.81332e-007
Spine  2.50436 1.67585 1.92987
Spine1  7.05399 1.47559 0.932883
HEad  -29.6569 21.0211 -12.591
LeftShoulder1  8.21965 -13.965 -40.8017
LeftArm  -8.30168 21.1109 -31.9531
LeftForeArm  167.452 -70.1262 -152.876
LeftHand  -0.279386 0.307869 6.40672
RightShoulder  3.57817 6.15734 31.1443
RightArm  14.698 -9.36996 39.0293
RightForeArm  134.405 78.9135 121.492
RightHand  -0.746 7.3651 -7.12912
LeftUpLeg  -23.8099 13.1023 11.9471
LeftLeg  35.8437 28.8999 20.8464
LeftFoot  -0.665484 1.11192 -11.8271
LeftToes  1.24773e-006 1.46318e-008 1.32523e-009
4
root  0.675341 38.799 13.0284 -170.964 43.4745 -175.922
RightUpLeg  -9.33242 -0.615044 0.225546
RightLeg  27.669 -9.81216 -5.7639
RightFoot  -17.2091 0.156797 5.33195
RightToes  -2.09809e-008 3.77894e-005 6.81332e-007
Spine  2.11308 1.20251 1.20508
Spine1  6.58499 1.17234 0.221352
HEad  -28.7044 22.9965 -11.9928
LeftShoulder1  7.72959 -13.5444 -39.1818
LeftArm  -8.03427 24.9071 -32.5025
LeftForeArm  168.494 -68.0034 -155.715
LeftHand  -0.250267 0.15583 5.58394
RightShoulder  3.64954 6.25373 31.5135
RightArm  14.3759 -13.509 39.4187
RightForeArm  143.776 77.4685 131.155
RightHand  -0.64485 7.305 -6.24138
LeftUpLeg  -22.0611 11.1337 11.7954
LeftLeg  34.6174 32.1702 21.8302
LeftFoot  2.79541 1.04881 -8.6883
LeftToes  1.24773e-006 1.46318e-008 1.32523e-009
5
root  0.925656 39.4604 12.6934 -170.147 43.3649 -176.038
RightUpLeg  -7.7165 -1.07612 -0.118105
RightLeg  23.0583 -9.34656 -4.55794
RightFoot  -13.2897 0.00962584 5.81434
RightToes  -2.09809e-008 3.77894e-005 6.81332e-007
Spine  -0.517234 0.623427 0.522605
Spine1  7.26325 0.414669 0.914858
HEad  -27.711 24.0331 -12.1305
LeftShoulder1  7.39457 -13.2206 -38.0997
LeftArm  -5.83425 28.3273 -32.1359
LeftForeArm  167.254 -66.5435 -157.166
LeftHand  -0.238227 0.0717653 5.24129
RightShoulder  3.65319 6.2602 31.5271
RightArm  14.4353 -18.7345 39.0105
RightForeArm  150.901 75.4079 139.749
RightHand  -0.702705 7.16855 -6.83144
LeftUpLeg  -21.3871 9.53378 11.8093
LeftLeg  31.084 30.9153 18.748
LeftFoot  6.5973 0.573173 -3.84686
LeftToes  1.24773e-006 1.46318e-008 1.32523e-009
6
root  1.10955 40.0946 12.246 -168.259 43.4841 -175.987
RightUpLeg  -7.29742 -2.21941 -0.78225
RightLeg  18.7417 -7.4064 -3.01652
RightFoot  -9.00845 -0.201757 6.83835
RightToes  -2.09809e-008 3.77894e-005 6.81332e-007
Spine  -2.92629 0.755341 -1.60228
Spine1  6.16871 -0.0109838 3.79891
HEad  -25.6069 24.0285 -12.5155
LeftShoulder1  7.40568 -13.2261 -38.156
LeftArm  -2.9133 31.381 -31.1502
LeftForeArm  167.637 -65.8372 -157.915
LeftHand  -0.196631 -0.158208 4.16577
RightShoulder  3.5098 6.05303 30.8262
RightArm  14.9224 -24.931 37.369
RightForeArm  155.128 73.8382 144.424
RightHand  -0.719862 7.44141 -6.8549
LeftUpLeg  -20.9588 10.1845 11.6361
LeftLeg  24.3736 19.3324 9.6476
LeftFoot  6.372 0.793619 -5.30342
LeftToes  1.24773e-006 1.46318e-008 1.32523e-009
7
root  1.14466 40.5075 11.77 -166.589 43.8466 -176.049
RightUpLeg  -7.40494 -3.10257 -1.7468
RightLeg  15.7457 -5.39322 -1.92929
RightFoot  -5.96533 -0.429679 8.27163
RightToes  -2.09809e-008 3.77894e-005 6.81332e-007
Spine  -4.49987 0.604387 -1.54314
Spine1  4.78867 -0.0452301 3.33634
HEad  -24.1344 24.1764 -12.0523
LeftShoulder1  6.9293 -12.8082 -36.4268
LeftArm  -0.34263 33.3847 -31.7454
LeftForeArm  168.225 -65.7824 -158.034
LeftHand  -0.14935 -0.455372 3.03896
RightShoulder  3.54149 6.14402 30.8109
RightArm  15.655 -29.576 35.4214
RightForeArm  156.575 73.4492 145.524
RightHand  -0.556865 7.96961 -5.19839
LeftUpLeg  -20.0438 8.45039 11.7143
LeftLeg  17.7519 5.2757 2.21273
LeftFoot  3.27108 1.53514 -12.0943
LeftToes  1.24773e-006 1.46318e-008 1.32523e-009
8
root  0.997375 40.591 11.2891 -165.8 43.8887 -176.193
RightUpLeg  -7.47593 -3.69589 -2.68774
RightLeg  14.5665 -4.51745 -1.55545
RightFoot  -5.01099 -0.539637 9.13136
RightToes  -2.09809e-008 3.77894e-005 6.81332e-007
Spine  -4.78295 0.434297 -1.03626
Spine1  3.9585 -0.103568 2.62417
HEad  -24.2056 23.9342 -11.789
LeftShoulder1  6.67857 -12.618 -35.3983
LeftArm  2.2006 32.5979 -32.0044
LeftForeArm  167.096 -66.665 -157.016
LeftHand  -0.174428 -0.654374 3.44185
RightShoulder  3.58198 6.25625 30.8026
RightArm  16.5157 -31.4536 33.2373
RightForeArm  155.148 73.9513 144.183
RightHand  -0.389443 8.22173 -3.69012
LeftUpLeg  -19.5443 2.62845 11.9917
LeftLeg  14.0759 -0.0244011 0.467727
LeftFoot  0.700034 1.68622 -15.8989
LeftToes  1.24773e-006 1.46318e-008 1.32523e-009
9
root  0.687357 40.2851 10.8318 -165.778 44.1421 -176.419
RightUpLeg  -7.9596 -3.12479 -3.61151
RightLeg  15.7828 -5.12761 -1.95701
RightFoot  -6.80666 -0.423277 9.50591
RightToes  -2.09809e-008 3.77894e-005 6.81332e-007
Spine  -3.52699 0.486016 -0.375368
Spine1  3.02907 0.117436 1.57303
HEad  -25.2579 23.3948 -11.5433
LeftShoulder1  6.63941 -12.6596 -35.0563
LeftArm  4.19609 29.6469 -32.0873
LeftForeArm  165.256 -67.8909 -155.454
LeftHand  -0.191548 -0.670727 3.76523
RightShoulder  3.59201 6.31983 30.6648
RightArm  17.3462 -31.4089 30.9611
RightForeArm  152.796 74.4935 142.495
RightHand  -0.342701 7.94507 -3.35066
LeftUpLeg  -20.3198 -2.08591 11.5478
LeftLeg  15.4773 1.59376 1.00065
LeftFoot  -1.57306 1.17154 -13.4921
LeftToes  1.24773e-006 1.46318e-008 1.32523e-009
10
root  0.282629 39.6603 10.4241 -167.071 44.9413 -177.806
RightUpLeg  -9.01994 -1.32725 -5.52427
RightLeg  19.2459 -6.91753 -2.91599
RightFoot  -11.0786 -0.097644 9.68664
RightToes  -2.09809e-008 3.77894e-005 6.81332e-007
Spine  -1.6793 0.665135 -1.37023
Spine1  2.5339 0.418016 1.10379
HEad  -26.9868 22.9391 -11.9333
LeftShoulder1  6.9296 -13.0051 -35.9346
LeftArm  5.52264 24.9182 -31.2461
LeftForeArm  162.471 -68.9961 -153.763
LeftHand  -0.186979 -0.643535 3.69677
RightShoulder  3.57458 6.3537 30.357
RightArm  17.437 -29.6907 29.4429
RightForeArm  150.643 75.0345 140.73
RightHand  -0.392734 7.69879 -3.84449
LeftUpLeg  -21.6362 -5.41038 9.6011
LeftLeg  19.6591 5.72017 2.59645
LeftFoot  -5.07882 0.583969 -10.042
LeftToes  1.24773e-006 1.46318e-008 1.32523e-009
11
root  -0.099584 39.031 10.0624 -169.563 45.1526 179.553
RightUpLeg  -9.71454 -0.459528 -8.20094
RightLeg  22.8029 -8.41424 -4.0769
RightFoot  -15.3059 0.234818 9.76978
RightToes  -2.09809e-008 3.77894e-005 6.81332e-007
Spine  -0.592689 0.591385 -4.25502
Spine1  3.54152 0.212538 1.94912
HEad  -29.0968 22.5049 -12.8939
LeftShoulder1  7.54377 -13.5199 -38.1963
LeftArm  6.94579 17.5052 -28.7863
LeftForeArm  158.221 -71.3329 -149.746
LeftHand  -0.272917 -0.692717 5.31563
RightShoulder  3.57134 6.32929 30.4152
RightArm  15.9106 -26.2805 29.8693
RightForeArm  145.009 76.8884 133.735
RightHand  -0.551994 7.61142 -5.28175
LeftUpLeg  -23.0137 -8.94798 6.76794
LeftLeg  24.0609 9.54185 4.9633
LeftFoot  -8.56633 0.259862 -8.60374
LeftToes  1.24773e-006 1.46318e-008 1.32523e-009
12
root  -0.359449 38.6794 9.69755 -171.127 44.6786 178.128
RightUpLeg  -9.45245 -0.180641 -9.81781
RightLeg  24.5058 -9.43231 -4.87905
RightFoot  -17.3925 0.420738 10.1734
RightToes  -2.09809e-008 3.77894e-005 6.81332e-007
Spine  -0.881012 0.490792 -5.60035
Spine1  5.35813 -0.0310035 2.62157
HEad  -30.025 22.0631 -13.2365
LeftShoulder1  8.03481 -13.8937 -39.9831
LeftArm  8.20856 9.8353 -27.1504
LeftForeArm  152.519 -74.7169 -141.918
LeftHand  -0.347893 -0.592146 6.8614
RightShoulder  3.59364 6.28941 30.797
RightArm  12.9172 -23.9389 32.3402
RightForeArm  134.752 79.0436 120.896
RightHand  -0.681915 7.45442 -6.50768
LeftUpLeg  -24.1072 -9.75668 4.83711
LeftLeg  27.586 9.85073 5.87163
LeftFoot  -10.3065 0.132336 -7.87849
LeftToes  1.24773e-006 1.46318e-008 1.32523e-009
13
root  -0.458404 38.7186 9.31861 -171.081 45.0863 178.866
RightUpLeg  -8.5218 0.298893 -9.87666
RightLeg  23.999 -9.37817 -4.74988
RightFoot  -16.7231 0.400447 10.9207
RightToes  -2.09809e-008 3.77894e-005 6.81332e-007
Spine  -0.844929 0.73597 -3.85917
Spine1  4.97763 0.374279 1.65778
HEad  -28.4958 22.587 -12.9737
LeftShoulder1  7.93471 -13.8228 -39.6062
LeftArm  8.4944 7.53632 -28.6362
LeftForeArm  150.627 -75.8019 -138.619
LeftHand  -0.313808 -0.514431 6.26302
RightShoulder  3.62749 6.31714 31.0415
RightArm  10.7222 -25.1693 35.1665
RightForeArm  134.28 79.2227 119.568
RightHand  -0.595259 7.65405 -5.64989
LeftUpLeg  -23.7026 -7.94391 4.53536
LeftLeg  28.569 8.27213 5.20589
LeftFoot  -10.5524 0.116365 -7.80287
LeftToes  1.24773e-006 1.46318e-008 1.32523e-009
14
root  -0.387089 39.1545 8.97865 -170.33 46.8048 -179.82
RightUpLeg  -7.65664 0.262605 -9.65558
RightLeg  21.7554 -7.52725 -3.50958
RightFoot  -13.269 0.104474 11.5738
RightToes  -2.09809e-008 3.77894e-005 6.81332e-007
Spine  -2.17442 1.13064 -2.14004
Spine1  5.03758 0.849237 1.10306
HEad  -26.0883 24.4101 -13.4449
LeftShoulder1  7.54783 -13.5035 -38.2611
LeftArm  7.6613 9.9805 -31.3788
LeftForeArm  155.403 -73.6225 -144.941
LeftHand  -0.29651 -0.243985 6.18716
RightShoulder  3.58062 6.31161 30.5776
RightArm  11.1984 -27.09 37.2505
RightForeArm  143.572 77.7708 129.843
RightHand  -0.427495 8.25871 -4.00767
LeftUpLeg  -21.3447 -7.04791 5.00926
LeftLeg  25.7781 8.97794 5.02883
LeftFoot  -9.17149 0.214665 -8.42653
LeftToes  1.24773e-006 1.46318e-008 1.32523e-009
